<svg width="20" height="20" viewBox="0 0 20 20" fill="none" xmlns="http://www.w3.org/2000/svg">
<path d="M10.0007 0C7.28487 0 6.94403 0.0118752 5.87735 0.0604169C4.81276 0.109167 4.08608 0.277708 3.45024 0.525C2.79253 0.780417 2.23461 1.12208 1.67877 1.67813C1.12251 2.23396 0.780841 2.79187 0.524589 3.44937C0.276669 4.08542 0.107918 4.81229 0.0600006 5.87646C0.0125002 6.94312 0 7.28417 0 10C0 12.7158 0.0120837 13.0556 0.0604175 14.1223C0.109376 15.1869 0.27792 15.9135 0.525006 16.5494C0.780633 17.2071 1.1223 17.765 1.67835 18.3208C2.23398 18.8771 2.7919 19.2196 3.4492 19.475C4.08546 19.7223 4.81234 19.8908 5.87673 19.9396C6.94341 19.9881 7.28403 20 9.99969 20C12.7158 20 13.0556 19.9881 14.1222 19.9396C15.1868 19.8908 15.9143 19.7223 16.5506 19.475C17.2081 19.2196 17.7652 18.8771 18.3208 18.3208C18.8771 17.765 19.2187 17.2071 19.475 16.5496C19.7208 15.9135 19.8896 15.1867 19.9396 14.1225C19.9875 13.0558 20 12.7158 20 10C20 7.28417 19.9875 6.94333 19.9396 5.87667C19.8896 4.81208 19.7208 4.08542 19.475 3.44958C19.2187 2.79187 18.8771 2.23396 18.3208 1.67813C17.7646 1.12188 17.2083 0.780208 16.55 0.525C15.9125 0.277708 15.1854 0.109167 14.1208 0.0604169C13.0541 0.0118752 12.7145 0 9.99781 0H10.0007ZM9.10364 1.80208C9.36989 1.80167 9.66698 1.80208 10.0007 1.80208C12.6708 1.80208 12.9872 1.81167 14.0416 1.85958C15.0166 1.90417 15.5458 2.06708 15.8983 2.20396C16.365 2.38521 16.6977 2.60188 17.0475 2.95187C17.3975 3.30188 17.6141 3.63521 17.7958 4.10187C17.9327 4.45396 18.0958 4.98312 18.1402 5.95812C18.1881 7.01229 18.1985 7.32896 18.1985 9.99771C18.1985 12.6665 18.1881 12.9831 18.1402 14.0373C18.0956 15.0123 17.9327 15.5415 17.7958 15.8935C17.6146 16.3602 17.3975 16.6925 17.0475 17.0423C16.6975 17.3923 16.3652 17.609 15.8983 17.7902C15.5462 17.9277 15.0166 18.0902 14.0416 18.1348C12.9874 18.1827 12.6708 18.1931 10.0007 18.1931C7.33049 18.1931 7.01403 18.1827 5.95985 18.1348C4.98484 18.0898 4.45567 17.9269 4.10296 17.79C3.63629 17.6087 3.30295 17.3921 2.95295 17.0421C2.60294 16.6921 2.38628 16.3596 2.20461 15.8927C2.06773 15.5406 1.9046 15.0115 1.86023 14.0365C1.81231 12.9823 1.80273 12.6656 1.80273 9.99521C1.80273 7.32479 1.81231 7.00979 1.86023 5.95563C1.90481 4.98063 2.06773 4.45146 2.20461 4.09896C2.38586 3.63229 2.60294 3.29896 2.95295 2.94896C3.30295 2.59896 3.63629 2.38229 4.10296 2.20062C4.45546 2.06312 4.98484 1.90063 5.95985 1.85583C6.88236 1.81417 7.23987 1.80167 9.10364 1.79958V1.80208ZM15.3387 3.4625C15.1013 3.4625 14.8693 3.53289 14.672 3.66477C14.4746 3.79664 14.3208 3.98408 14.23 4.20338C14.1392 4.42267 14.1154 4.66397 14.1618 4.89676C14.2081 5.12955 14.3224 5.34337 14.4903 5.51118C14.6582 5.67898 14.872 5.79324 15.1048 5.83949C15.3377 5.88575 15.5789 5.86193 15.7982 5.77104C16.0175 5.68015 16.2049 5.52627 16.3367 5.32888C16.4685 5.13149 16.5388 4.89944 16.5387 4.66208C16.5387 3.99958 16.0012 3.46208 15.3387 3.46208V3.4625ZM10.0007 4.86458C7.16466 4.86458 4.86526 7.16396 4.86526 10C4.86526 12.836 7.16466 15.1344 10.0007 15.1344C12.8368 15.1344 15.1356 12.836 15.1356 10C15.1356 7.16396 12.8368 4.86458 10.0007 4.86458ZM10.0007 6.66667C11.8416 6.66667 13.3341 8.15896 13.3341 10C13.3341 11.8408 11.8416 13.3333 10.0007 13.3333C8.15967 13.3333 6.66736 11.8408 6.66736 10C6.66736 8.15896 8.15967 6.66667 10.0007 6.66667Z" fill="white"/>
<path d="M10.0007 0C7.28487 0 6.94403 0.0118752 5.87735 0.0604169C4.81276 0.109167 4.08608 0.277708 3.45024 0.525C2.79253 0.780417 2.23461 1.12208 1.67877 1.67813C1.12251 2.23396 0.780841 2.79187 0.524589 3.44937C0.276669 4.08542 0.107918 4.81229 0.0600006 5.87646C0.0125002 6.94312 0 7.28417 0 10C0 12.7158 0.0120837 13.0556 0.0604175 14.1223C0.109376 15.1869 0.27792 15.9135 0.525006 16.5494C0.780633 17.2071 1.1223 17.765 1.67835 18.3208C2.23398 18.8771 2.7919 19.2196 3.4492 19.475C4.08546 19.7223 4.81234 19.8908 5.87673 19.9396C6.94341 19.9881 7.28403 20 9.99969 20C12.7158 20 13.0556 19.9881 14.1222 19.9396C15.1868 19.8908 15.9143 19.7223 16.5506 19.475C17.2081 19.2196 17.7652 18.8771 18.3208 18.3208C18.8771 17.765 19.2187 17.2071 19.475 16.5496C19.7208 15.9135 19.8896 15.1867 19.9396 14.1225C19.9875 13.0558 20 12.7158 20 10C20 7.28417 19.9875 6.94333 19.9396 5.87667C19.8896 4.81208 19.7208 4.08542 19.475 3.44958C19.2187 2.79187 18.8771 2.23396 18.3208 1.67813C17.7646 1.12188 17.2083 0.780208 16.55 0.525C15.9125 0.277708 15.1854 0.109167 14.1208 0.0604169C13.0541 0.0118752 12.7145 0 9.99781 0H10.0007ZM9.10364 1.80208C9.36989 1.80167 9.66698 1.80208 10.0007 1.80208C12.6708 1.80208 12.9872 1.81167 14.0416 1.85958C15.0166 1.90417 15.5458 2.06708 15.8983 2.20396C16.365 2.38521 16.6977 2.60188 17.0475 2.95187C17.3975 3.30188 17.6141 3.63521 17.7958 4.10187C17.9327 4.45396 18.0958 4.98312 18.1402 5.95812C18.1881 7.01229 18.1985 7.32896 18.1985 9.99771C18.1985 12.6665 18.1881 12.9831 18.1402 14.0373C18.0956 15.0123 17.9327 15.5415 17.7958 15.8935C17.6146 16.3602 17.3975 16.6925 17.0475 17.0423C16.6975 17.3923 16.3652 17.609 15.8983 17.7902C15.5462 17.9277 15.0166 18.0902 14.0416 18.1348C12.9874 18.1827 12.6708 18.1931 10.0007 18.1931C7.33049 18.1931 7.01403 18.1827 5.95985 18.1348C4.98484 18.0898 4.45567 17.9269 4.10296 17.79C3.63629 17.6087 3.30295 17.3921 2.95295 17.0421C2.60294 16.6921 2.38628 16.3596 2.20461 15.8927C2.06773 15.5406 1.9046 15.0115 1.86023 14.0365C1.81231 12.9823 1.80273 12.6656 1.80273 9.99521C1.80273 7.32479 1.81231 7.00979 1.86023 5.95563C1.90481 4.98063 2.06773 4.45146 2.20461 4.09896C2.38586 3.63229 2.60294 3.29896 2.95295 2.94896C3.30295 2.59896 3.63629 2.38229 4.10296 2.20062C4.45546 2.06312 4.98484 1.90063 5.95985 1.85583C6.88236 1.81417 7.23987 1.80167 9.10364 1.79958V1.80208ZM15.3387 3.4625C15.1013 3.4625 14.8693 3.53289 14.672 3.66477C14.4746 3.79664 14.3208 3.98408 14.23 4.20338C14.1392 4.42267 14.1154 4.66397 14.1618 4.89676C14.2081 5.12955 14.3224 5.34337 14.4903 5.51118C14.6582 5.67898 14.872 5.79324 15.1048 5.83949C15.3377 5.88575 15.5789 5.86193 15.7982 5.77104C16.0175 5.68015 16.2049 5.52627 16.3367 5.32888C16.4685 5.13149 16.5388 4.89944 16.5387 4.66208C16.5387 3.99958 16.0012 3.46208 15.3387 3.46208V3.4625ZM10.0007 4.86458C7.16466 4.86458 4.86526 7.16396 4.86526 10C4.86526 12.836 7.16466 15.1344 10.0007 15.1344C12.8368 15.1344 15.1356 12.836 15.1356 10C15.1356 7.16396 12.8368 4.86458 10.0007 4.86458ZM10.0007 6.66667C11.8416 6.66667 13.3341 8.15896 13.3341 10C13.3341 11.8408 11.8416 13.3333 10.0007 13.3333C8.15967 13.3333 6.66736 11.8408 6.66736 10C6.66736 8.15896 8.15967 6.66667 10.0007 6.66667Z" fill="url(#paint0_linear_23_2923)"/>
<defs>
<linearGradient id="paint0_linear_23_2923" x1="-0.348485" y1="-3.3419" x2="26.019" y2="9.55315" gradientUnits="userSpaceOnUse">
<stop stop-color="#FFE973"/>
<stop offset="1" stop-color="#FFC226"/>
</linearGradient>
</defs>
</svg>
