<svg width="17" height="20" viewBox="0 0 17 20" fill="none" xmlns="http://www.w3.org/2000/svg">
<path d="M1.09112 3.00974C0.430946 3.30315 0 3.96332 0 4.68768V8.99714C0 14.086 3.52092 18.8447 8.25215 20C12.9834 18.8447 16.5043 14.086 16.5043 8.99714V4.68768C16.5043 3.96332 16.0734 3.30315 15.4132 3.00974L8.99484 0.158166C8.51805 -0.0527221 7.97708 -0.0527221 7.50945 0.158166L1.09112 3.00974ZM8.25215 5.32951C8.75645 5.32951 9.16905 5.74212 9.16905 6.24642C9.16905 6.75072 8.75645 7.16332 8.25215 7.16332C7.74785 7.16332 7.33524 6.75072 7.33524 6.24642C7.33524 5.74212 7.74785 5.32951 8.25215 5.32951ZM8.25215 8.99714C8.75645 8.99714 9.16905 9.40974 9.16905 9.91404V13.5817C9.16905 14.086 8.75645 14.4986 8.25215 14.4986C7.74785 14.4986 7.33524 14.086 7.33524 13.5817V9.91404C7.33524 9.40974 7.74785 8.99714 8.25215 8.99714Z" fill="url(#paint0_linear_23_2912)"/>
<defs>
<linearGradient id="paint0_linear_23_2912" x1="-0.287575" y1="-3.3419" x2="22.899" y2="6.01554" gradientUnits="userSpaceOnUse">
<stop stop-color="#FFE973"/>
<stop offset="1" stop-color="#FFC226"/>
</linearGradient>
</defs>
</svg>
