<svg width="35" height="20" viewBox="0 0 35 20" fill="none" xmlns="http://www.w3.org/2000/svg">
<path d="M34.1096 17.9452C34.1096 17.8082 33.9726 17.8082 33.9726 17.6712C33.4247 16.5753 32.1918 15.2055 30.548 13.6986C29.726 13.0137 29.3151 12.4658 29.0411 12.1918C28.6301 11.6438 28.6302 11.2329 28.7672 10.6849C28.9042 10.274 29.4521 9.58903 30.411 8.35616C30.9589 7.67122 31.2329 7.26028 31.6438 6.84932C33.6986 4.10959 34.6575 2.32876 34.3836 1.50684L34.2466 1.36986C34.1096 1.23288 33.9726 1.0959 33.6986 1.0959C33.4247 0.958909 33.0137 0.958909 32.6028 1.0959H27.3973C27.2603 1.0959 27.2603 1.0959 26.9863 1.0959C26.8493 1.0959 26.7124 1.0959 26.7124 1.0959H26.5754H26.4384L26.3014 1.23287C26.1644 1.36986 26.1644 1.36985 26.1644 1.50684C25.6164 3.01369 24.9315 4.24657 24.2466 5.61643C23.8356 6.30136 23.4247 6.98631 23.0137 7.53425C22.6028 8.0822 22.3288 8.49315 22.0548 8.76712C21.7808 9.04109 21.5069 9.17808 21.3699 9.45205C21.2329 9.58904 20.9589 9.72603 20.9589 9.58905C20.8219 9.58905 20.6849 9.58904 20.6849 9.45205C20.5479 9.31507 20.411 9.17807 20.274 9.04109C20.137 8.9041 20.137 8.63013 20 8.35616C20 8.08218 20 7.80821 20 7.67122C20 7.53424 20 7.12329 20 6.84932C20 6.43836 20 6.16438 20 6.02739C20 5.61643 20 5.0685 20 4.52056C20 3.97261 20 3.56164 20 3.28766C20 3.01369 20 2.60274 20 2.32876C20 1.91781 20 1.64382 20 1.50684C20 1.36985 19.863 1.09589 19.863 0.958901C19.7261 0.821914 19.589 0.684924 19.4521 0.547937C19.3151 0.410951 19.0411 0.410955 18.9041 0.273969C18.2192 0.136982 17.3973 0 16.4384 0C14.2466 0 12.7397 0.136991 12.1918 0.410963C11.9178 0.54795 11.6439 0.684928 11.5069 0.958901C11.2329 1.23287 11.2329 1.36986 11.3699 1.36986C12.0548 1.50685 12.6028 1.78081 12.8767 2.19177L13.0137 2.46576C13.1507 2.60275 13.1507 2.87671 13.2877 3.28766C13.4247 3.69862 13.4247 4.10958 13.4247 4.65753C13.4247 5.47945 13.4247 6.30137 13.4247 6.84932C13.4247 7.53425 13.2877 7.9452 13.2877 8.35616C13.2877 8.76712 13.1507 9.0411 13.0137 9.17808C12.8767 9.45206 12.8767 9.58905 12.7397 9.58905C12.7397 9.58905 12.7397 9.72602 12.6027 9.72602C12.4658 9.72602 12.3288 9.86302 12.0548 9.86302C11.9178 9.86302 11.6439 9.72603 11.5069 9.58905C11.2329 9.45206 10.9589 9.17809 10.8219 8.90411C10.548 8.63014 10.274 8.21917 10 7.67122C9.72604 7.12328 9.31506 6.57534 9.04109 5.75342L8.76714 5.20549C8.63015 4.93151 8.35618 4.38356 8.08221 3.69863C7.80824 3.0137 7.53426 2.46576 7.26028 1.78083C7.1233 1.50685 6.98633 1.36986 6.84934 1.23287H6.71235C6.71235 1.23287 6.57534 1.0959 6.43836 1.0959C6.30137 1.0959 6.1644 0.958901 6.02741 0.958901H1.0959C0.54795 0.958901 0.273981 1.09588 0.136995 1.23287L0 1.36986C0 1.36986 0 1.50685 0 1.64383C0 1.78082 8.35946e-06 1.9178 0.136995 2.19177C0.821927 3.83561 1.64384 5.47945 2.46576 7.12329C3.28768 8.63014 4.1096 10 4.65755 10.9589C5.34248 11.9178 5.89042 12.8767 6.57535 13.6986C7.26028 14.5206 7.67123 15.0685 7.80822 15.3425C8.08219 15.6164 8.21917 15.7534 8.35616 15.8904L8.76714 16.3014C9.04111 16.5753 9.45206 16.9863 10 17.3973C10.548 17.8082 11.2329 18.2192 11.9178 18.6301C12.6027 19.0411 13.4247 19.3151 14.2466 19.5891C15.2055 19.863 16.0274 20 16.8493 19.863H18.9041C19.3151 19.863 19.5891 19.726 19.863 19.4521L20 19.3151C20 19.1781 20.137 19.1781 20.137 19.0411C20.137 18.9041 20.137 18.7671 20.137 18.4932C20.137 17.9452 20.137 17.5343 20.274 17.1233C20.411 16.7123 20.411 16.4384 20.548 16.1644C20.685 15.8904 20.8219 15.7534 20.9589 15.6164C21.0959 15.4795 21.2329 15.3425 21.2329 15.3425H21.3699C21.6438 15.2055 22.0548 15.3425 22.3288 15.6164C22.7397 15.8904 23.1507 16.3014 23.4247 16.7123C23.6986 17.1233 24.1096 17.5343 24.6576 18.0822C25.2055 18.6301 25.6165 19.0411 25.8904 19.1781L26.3014 19.4521C26.5754 19.589 26.8493 19.726 27.2603 19.863C27.6713 20 27.9452 20 28.2192 20L32.8768 19.863C33.2877 19.863 33.6987 19.726 33.9726 19.5891C34.2466 19.4521 34.3836 19.3151 34.3836 19.0411C34.3836 18.9041 34.3836 18.6301 34.3836 18.4932C34.1096 18.2192 34.1096 18.0822 34.1096 17.9452Z" fill="url(#paint0_linear_23_2919)"/>
<defs>
<linearGradient id="paint0_linear_23_2919" x1="-0.599907" y1="-3.3419" x2="32.3167" y2="24.3702" gradientUnits="userSpaceOnUse">
<stop stop-color="#FFE973"/>
<stop offset="1" stop-color="#FFC226"/>
</linearGradient>
</defs>
</svg>
