<svg width="28" height="20" viewBox="0 0 28 20" fill="none" xmlns="http://www.w3.org/2000/svg">
<path d="M27.6768 7.67676C27.6768 7.0707 27.5758 6.36364 27.5758 5.55555C27.4748 4.74747 27.3737 3.93939 27.2727 3.23232C27.0707 2.42424 26.7677 1.81818 26.1616 1.31313C25.6566 0.808084 24.9495 0.505044 24.2424 0.404034C21.9192 0.101004 18.4849 0 13.8384 0C9.19193 0 5.65656 0.101004 3.43434 0.404034C2.72727 0.505044 2.0202 0.808084 1.51515 1.31313C1.0101 1.81818 0.606054 2.42424 0.404034 3.23232C0.202014 3.93939 0.101016 4.64646 0.101016 5.55555C6.16366e-06 6.36364 0 7.0707 0 7.67676C0 8.28282 0 8.98989 0 9.99999C0 11.0101 0 11.8182 0 12.3232C0 12.9293 0.101016 13.6364 0.101016 14.4444C0.202026 15.2525 0.303024 16.0606 0.404034 16.7677C0.606054 17.5757 0.909091 18.1818 1.51515 18.6869C2.0202 19.1919 2.72727 19.4949 3.43434 19.596C5.75757 19.899 9.19193 20 13.8384 20C18.4849 20 22.0202 19.899 24.2424 19.596C24.9495 19.4949 25.6566 19.1919 26.1616 18.6869C26.6667 18.1818 27.0707 17.5757 27.2727 16.7677C27.4747 16.0606 27.5758 15.3535 27.5758 14.4444C27.6768 13.6364 27.6768 12.9293 27.6768 12.3232C27.6768 11.7172 27.6768 11.0101 27.6768 9.99999C27.6768 8.98989 27.6768 8.18181 27.6768 7.67676ZM19.1919 10.8081L11.2121 15.7576C11.1111 15.8586 10.9091 15.9596 10.7071 15.9596C10.5051 15.9596 10.404 15.9596 10.202 15.8586C9.89899 15.6566 9.69697 15.3535 9.69697 14.9495V4.94949C9.69697 4.54545 9.89899 4.24242 10.202 4.0404C10.5051 3.83838 10.9091 3.83838 11.2121 4.0404L19.1919 8.98989C19.4949 9.19191 19.697 9.49494 19.697 9.79798C19.697 10.101 19.4949 10.6061 19.1919 10.8081Z" fill="url(#paint0_linear_23_2917)"/>
<defs>
<linearGradient id="paint0_linear_23_2917" x1="-0.482246" y1="-3.3419" x2="30.5293" y2="17.6457" gradientUnits="userSpaceOnUse">
<stop stop-color="#FFE973"/>
<stop offset="1" stop-color="#FFC226"/>
</linearGradient>
</defs>
</svg>
