<svg width="955" height="393" viewBox="0 0 955 393" fill="none" xmlns="http://www.w3.org/2000/svg">
<g opacity="0.25">
<path d="M298.734 252.103V321.202H258.219V385.442H183.13V321.202H0V252.103L125.868 7.55769H205.819L80.4907 252.103H183.13V162.49H258.219V252.103H298.734Z" fill="#212121"/>
<path d="M474.82 393C378.663 393 323.562 313.104 323.562 196.5C323.562 79.8956 378.663 0 474.82 0C571.517 0 626.078 79.8956 626.078 196.5C626.078 313.104 571.517 393 474.82 393ZM474.82 320.122C525.599 320.122 552.07 276.396 552.07 196.5C552.07 116.604 525.599 72.3379 474.82 72.3379C424.041 72.3379 398.111 116.604 398.111 196.5C398.111 276.396 424.041 320.122 474.82 320.122Z" fill="#212121"/>
<path d="M955 252.103V321.202H914.485V385.442H839.396V321.202H656.266V252.103L782.134 7.55769H862.085L736.757 252.103H839.396V162.49H914.485V252.103H955Z" fill="#212121"/>
</g>
</svg>
