<svg width="115" height="30" viewBox="0 0 115 30" fill="none" xmlns="http://www.w3.org/2000/svg">
    <path d="M84.6529 3.41707C80.2407 3.77264 75.8279 4.12836 72.0407 4.67457C68.3413 5.20816 65.2473 5.91699 63.3651 6.97601C62.6004 7.40621 62.056 7.88456 61.7048 8.38322C61.3608 8.87188 61.1947 9.38947 61.1819 9.90352C61.1688 10.4317 61.3198 10.9775 61.6082 11.5037C61.9854 12.192 62.5889 12.8287 63.3662 13.344C63.6807 13.5523 64.0234 13.7419 64.388 13.9137C64.7299 13.3437 65.1964 12.8672 65.8215 12.5175C66.9608 11.8805 68.5527 11.7748 70.1866 11.9559C72.2241 12.1819 74.3969 12.8543 75.7212 13.4557C76.5545 13.8342 77.1263 14.227 77.4264 14.6167C77.741 15.0254 77.8355 15.4597 77.7083 15.9141C77.5906 16.3338 77.3053 16.6723 76.8507 16.9232C76.3407 17.2047 75.4937 17.4034 74.3075 17.4964C72.5833 17.6315 69.9582 17.5747 67.4145 17.0916C66.8586 16.986 66.3053 16.8597 65.7643 16.7105C65.6475 18.026 65.8277 19.6193 66.0178 21.0975C66.3859 23.9564 66.8098 26.9366 67.2938 29.7706H65.082C64.6185 27.0528 64.2199 24.1902 63.867 21.4489C63.6629 19.8612 63.4702 18.1387 63.6085 16.6064C63.6277 16.3944 63.6531 16.1864 63.6855 15.9829C63.123 15.7361 62.5931 15.4546 62.1107 15.1348C61.0487 14.4307 60.2173 13.548 59.6886 12.5832C59.2338 11.7535 58.9969 10.853 59.0195 9.9369C59.0426 9.00666 59.3355 8.08104 59.9418 7.22003C60.4892 6.44273 61.2826 5.72821 62.3521 5.12661C64.5096 3.91265 67.8648 3.12765 71.8189 2.55745C75.6849 1.99986 80.1307 1.64152 84.576 1.28318L84.6529 3.41707ZM66.4583 14.6597C66.9296 14.7884 67.4145 14.8983 67.9039 14.9912C70.2382 15.4346 72.6478 15.4866 74.2305 15.3625C74.3536 15.3529 74.47 15.3426 74.58 15.3316C73.4012 14.8207 71.576 14.2721 69.8572 14.0814C68.6317 13.9456 67.5032 13.9882 66.826 14.3669C66.6878 14.4442 66.566 14.5426 66.4583 14.6597Z" fill="#FDEC19"/>
    <path fill-rule="evenodd" clip-rule="evenodd" d="M90.8419 9.80105C91.6478 9.80105 92.301 10.4462 92.301 11.2418C92.301 12.0376 91.6478 12.6825 90.8419 12.6825C90.0362 12.6825 89.3831 12.0376 89.3831 11.2418C89.3831 10.4462 90.0362 9.80105 90.8419 9.80105Z" fill="#FDEC19"/>
    <path d="M8.70537 4.97937C9.24666 4.97937 9.77627 4.99844 10.2939 5.03629C10.8085 5.07399 11.3124 5.13107 11.8048 5.20723C12.2992 5.2837 12.7636 5.39694 13.1979 5.54665C13.6342 5.69712 14.0404 5.88453 14.4162 6.10824C14.7942 6.33334 15.1349 6.60321 15.4383 6.9177C15.7409 7.23127 16.0063 7.58961 16.2341 7.99195C16.4625 8.39568 16.6337 8.86096 16.7474 9.38716C16.8607 9.91106 16.9174 10.4956 16.9174 11.1402C16.9174 11.8452 16.8293 12.4974 16.6529 13.0966C16.4762 13.6968 16.211 14.2427 15.8576 14.7335C15.5038 15.2251 15.0708 15.647 14.5586 15.9989C14.148 16.281 13.6864 16.5183 13.1737 16.7108C13.8704 16.8569 14.5014 17.0765 15.0664 17.3691C15.7393 17.7176 16.3182 18.1695 16.8026 18.7246C17.2876 19.2804 17.6515 19.9158 17.8936 20.6307C18.1353 21.3437 18.2562 22.1351 18.2562 23.0043C18.2562 23.6973 18.1831 24.3266 18.037 24.892C17.8902 25.46 17.6694 25.9638 17.3749 26.4032C17.0823 26.8396 16.7462 27.2305 16.367 27.5753C15.9877 27.9203 15.5651 28.2197 15.0994 28.4732C14.636 28.7254 14.1426 28.9382 13.6194 29.1115C13.0972 29.2842 12.5454 29.4176 11.9642 29.5113C11.3842 29.6047 10.8057 29.6749 10.2289 29.7214C9.6499 29.768 9.07153 29.7914 8.49393 29.7914H0V4.97937H8.70537ZM2.50717 7.28112V15.9735H7.96542C8.36399 15.9735 8.75866 15.955 9.14912 15.9179C9.54052 15.8807 9.93208 15.8245 10.3233 15.7494C11.0979 15.6013 11.7968 15.3445 12.4202 14.9797C12.73 14.7983 13.0114 14.5872 13.2635 14.3465C13.5154 14.1065 13.7392 13.8359 13.9344 13.5352C14.1276 13.2378 14.2728 12.9018 14.3698 12.5273C14.4673 12.1505 14.5161 11.7345 14.5161 11.2795C14.5161 10.8338 14.4759 10.434 14.3958 10.0805C14.3162 9.72966 14.1968 9.42255 14.0385 9.15975C13.879 8.89527 13.6928 8.6634 13.4801 8.46477C13.2683 8.26675 13.0285 8.10012 12.7608 7.96518C12.4919 7.82902 12.2026 7.71562 11.8939 7.62438C11.5845 7.53299 11.2568 7.46452 10.911 7.41898C10.5625 7.37313 10.2066 7.33866 9.84358 7.31558C9.48412 7.29266 9.11625 7.28112 8.74059 7.28112H2.50717ZM8.3883 27.4896C9.23155 27.4896 10.091 27.4435 10.9664 27.3513C11.4026 27.3054 11.8174 27.2324 12.2107 27.1325C12.6025 27.033 12.9759 26.9054 13.33 26.7508C13.6797 26.598 13.9977 26.4072 14.2831 26.1789C14.5695 25.9498 14.8246 25.6825 15.0477 25.3773C15.2688 25.0751 15.435 24.7155 15.546 24.2992C15.6579 23.8797 15.7139 23.4015 15.7139 22.865C15.7139 22.397 15.6694 21.9726 15.5804 21.5929C15.4919 21.2152 15.3595 20.8804 15.1836 20.5888C15.0061 20.2949 14.8012 20.0318 14.5694 19.8C14.3381 19.5687 14.0795 19.3684 13.7939 19.1992C13.5066 19.029 13.1956 18.8839 12.8612 18.7643C12.5257 18.6445 12.1675 18.5503 11.7869 18.482C11.0196 18.3443 10.239 18.2754 9.44516 18.2754H2.50717V27.4896H8.3883ZM32.3036 27.2967C31.8989 27.7553 31.4692 28.1509 31.015 28.4828C30.4982 28.8604 29.9503 29.1553 29.372 29.3672C28.797 29.5778 28.1926 29.7361 27.5595 29.8418C26.9274 29.9472 26.268 30 25.582 30C25.1686 30 24.7602 29.9749 24.3573 29.9249C23.9558 29.8749 23.5619 29.8001 23.1766 29.7006C22.7884 29.6004 22.4196 29.469 22.0701 29.3069C21.7197 29.1442 21.3891 28.9507 21.0786 28.7267C20.7666 28.5016 20.486 28.2451 20.2369 27.9577C19.988 27.6702 19.7705 27.3519 19.5846 27.0028C19.3983 26.6523 19.2584 26.2798 19.1653 25.8858C19.0723 25.4917 19.0259 25.0763 19.0259 24.6395C19.0259 24.1107 19.0768 23.6243 19.1786 23.1808C19.2806 22.7355 19.4344 22.3342 19.6393 21.9774C19.8431 21.6221 20.0785 21.3021 20.3455 21.0178C20.613 20.7328 20.912 20.4837 21.2418 20.2705C21.5701 20.0583 21.9246 19.8768 22.3048 19.726C22.6834 19.576 23.0874 19.4566 23.5164 19.3682C23.9425 19.2807 24.378 19.2147 24.8227 19.1708C25.2686 19.1268 25.7216 19.1048 26.1809 19.1048H32.1672C32.1638 18.7279 32.1421 18.3614 32.1024 18.0058C32.0589 17.6161 31.9936 17.2376 31.9064 16.8703C31.8199 16.5052 31.7059 16.1633 31.5648 15.845C31.4237 15.5262 31.2556 15.2309 31.0606 14.9592C30.8667 14.6889 30.642 14.4459 30.3869 14.2308C30.1326 14.0164 29.8473 13.8297 29.5318 13.6711C29.2169 13.5128 28.8662 13.3938 28.4802 13.3149C25.0331 12.6099 22.2707 13.8971 22.2707 17.5299H19.9087C19.9988 12.0589 24.2889 10.2643 29.1784 11.2006C29.7629 11.3124 30.2944 11.4806 30.7721 11.7046C31.2496 11.9286 31.6812 12.1957 32.067 12.5056C32.4531 12.8159 32.7928 13.169 33.0857 13.5646C33.3779 13.9591 33.6284 14.3876 33.8372 14.8498C34.0457 15.3119 34.2124 15.807 34.3371 16.3347C34.4612 16.8603 34.5546 17.407 34.6167 17.9743C34.6789 18.5417 34.7101 19.1284 34.7101 19.7338V29.7914H32.3946L32.3864 27.988L32.3036 27.2967ZM27.3788 21.163C26.7688 21.163 26.1192 21.1861 25.4305 21.2323C25.0888 21.255 24.7604 21.2993 24.4458 21.3649C24.1317 21.4303 23.83 21.5174 23.5413 21.6257C23.2559 21.7326 22.995 21.8677 22.7591 22.0305C22.5236 22.1931 22.3116 22.3842 22.1236 22.6036C21.9394 22.8187 21.8007 23.0744 21.7083 23.3705C21.615 23.6696 21.5681 24.0116 21.5681 24.3958C21.5681 25.004 21.687 25.5205 21.9246 25.9449C22.0443 26.1587 22.1837 26.3555 22.3427 26.5349C22.5019 26.7146 22.6814 26.8779 22.8805 27.0239C23.0801 27.1703 23.2945 27.2973 23.5229 27.4044C23.7521 27.5119 23.9957 27.5996 24.2531 27.6675C24.7718 27.8039 25.3088 27.8724 25.8638 27.8724C26.3183 27.8724 26.7557 27.8436 27.1752 27.7866C27.5945 27.7296 27.9988 27.6435 28.3872 27.529C28.7741 27.415 29.1348 27.2711 29.4687 27.0977C29.8023 26.9245 30.1104 26.7214 30.3922 26.4884C30.6738 26.2558 30.9235 25.995 31.1412 25.7065C31.3592 25.4176 31.546 25.0995 31.7013 24.7529C31.8568 24.4061 31.9734 24.0296 32.051 23.6239C32.1287 23.2168 32.1677 22.7781 32.1677 22.3084V21.163H27.3788ZM40.3121 11.2419H45.4913V13.4045H40.3121V24.3098C40.3121 24.8686 40.4076 25.4793 40.6426 26.011C40.8357 26.4477 41.123 26.8314 41.5287 27.0883C41.6763 27.1776 41.8372 27.2544 42.0114 27.3184C42.1884 27.3828 42.3796 27.435 42.5847 27.4744C42.7939 27.5144 42.9993 27.5445 43.2004 27.5644C43.4002 27.5841 43.5993 27.5939 43.7975 27.5939H46.9656V29.7914H43.5861C42.7805 29.7914 41.9792 29.6974 41.1828 29.5096C40.7797 29.4146 40.4017 29.2689 40.0494 29.0725C39.6962 28.8759 39.3695 28.6294 39.0698 28.3335L39.0683 28.3314C38.838 28.0921 38.6396 27.8126 38.4735 27.4935C38.3081 27.1756 38.1744 26.8185 38.0726 26.4224C38.0401 26.2952 38.01 26.1843 37.9827 26.0835C37.841 25.5584 37.7698 25.2956 37.7698 24.4489V13.4045H34.634V11.2419H37.7698V5.0703H40.3121V11.2419ZM52.6436 11.2419H57.8229V13.4045H52.6436V24.3098C52.6436 24.8686 52.7391 25.4793 52.9742 26.011C53.1671 26.4477 53.4544 26.8314 53.8601 27.0883C54.0077 27.1776 54.1686 27.2544 54.343 27.3184C54.52 27.3828 54.7112 27.435 54.9161 27.4744C55.1253 27.5144 55.3308 27.5445 55.532 27.5644C55.7316 27.5841 55.9307 27.5939 56.1289 27.5939H59.0929V29.7914H55.9175C55.1119 29.7914 54.3106 29.6974 53.5142 29.5096C53.1113 29.4146 52.7332 29.2689 52.3809 29.0725C52.0276 28.8759 51.701 28.6294 51.4014 28.3335L51.3997 28.3314C51.1694 28.0921 50.9712 27.8126 50.805 27.4935C50.6395 27.1756 50.5058 26.8185 50.4042 26.4224C50.3715 26.2952 50.3414 26.1843 50.3143 26.0835C50.1724 25.5584 50.1013 25.2956 50.1013 24.4489V13.4045H46.9656V11.2419H50.1013V5.0703H52.6436V11.2419Z" fill="white"/>
    <path fill-rule="evenodd" clip-rule="evenodd" d="M91.6464 16.0792L89.0422 15.731C88.9964 15.8711 88.9529 16.0221 88.9124 16.1841C88.7065 17.0064 88.5867 17.2929 88.3305 17.9058C88.2775 18.0327 88.2186 18.1736 88.1519 18.3361C87.9097 18.9262 87.6199 19.583 87.2714 20.3062C86.5538 21.7957 85.5741 23.6077 84.5841 25.0854C83.8597 26.1669 83.1553 27.0428 82.5993 27.4121C82.4963 27.4805 82.4163 27.5201 82.3583 27.5319C82.3166 27.5005 82.2651 27.4399 82.2048 27.3516C81.796 26.7512 81.4929 25.5437 81.2933 23.815C81.1927 22.9429 81.1227 21.9571 81.085 20.9159C82.0761 19.5972 82.9409 18.1921 83.5741 16.6297C84.2326 15.0054 84.6341 13.2243 84.8074 11.6438C85.0105 9.7892 84.8909 8.14104 84.499 7.25173C84.3086 6.81938 84.042 6.50151 83.7171 6.29887C83.2506 6.00792 82.7414 5.96884 82.2176 6.17717C81.8586 6.31995 81.5105 6.58828 81.1927 6.97709C80.6077 7.69269 80.028 8.96189 79.6303 10.7365C79.24 12.4793 79.0094 14.7546 78.9259 17.0666C78.8877 18.1244 78.8798 19.1918 78.9008 20.2211C77.9081 21.4681 76.7807 22.6679 75.6532 23.8676L77.2379 25.3237C77.8527 24.6695 78.4675 24.0153 79.0674 23.346C79.0898 23.5902 79.1143 23.8279 79.1408 24.0576C79.3789 26.1192 79.7988 27.645 80.4083 28.5399C80.6634 28.9142 80.9608 29.2004 81.3014 29.3941C81.7001 29.6207 82.1274 29.7114 82.5824 29.6603H82.5867C82.9865 29.6152 83.3924 29.4587 83.8027 29.1861C84.6244 28.6403 85.525 27.5555 86.3891 26.2653C87.9021 24.0068 88.6011 22.3747 89.5295 20.2068C89.6662 19.8876 89.8079 19.5568 89.9579 19.2107C90.0279 19.819 90.0859 20.4083 90.1429 20.9881C90.3219 22.807 90.4917 24.5326 90.9946 26.4551C91.3896 27.9646 91.9064 28.9087 92.5914 29.3612C93.513 29.97 94.4633 29.7878 95.519 28.9236C97.1431 27.5942 99.044 24.758 100.744 21.3592C100.902 22.561 101.065 23.5896 101.211 24.3672C101.526 26.0552 101.869 27.2701 102.272 28.0817C102.848 29.2416 103.589 29.7424 104.544 29.685C105.24 29.643 105.942 29.2413 106.601 28.6536C107.285 28.0434 107.959 27.2105 108.51 26.424C109.001 25.7247 109.397 25.0648 109.745 24.4249C110.068 23.8325 110.376 23.1994 110.684 22.5664L108.735 21.6458C108.46 22.2114 108.184 22.7773 107.839 23.4123C107.519 23.9997 107.162 24.5963 106.731 25.2106C106.256 25.8875 105.693 26.5894 105.152 27.072C104.836 27.3538 104.57 27.5421 104.417 27.5512C104.417 27.5512 104.351 27.4238 104.212 27.1445C103.901 26.5169 103.618 25.481 103.338 23.9822C103.075 22.5758 102.75 20.2976 102.512 17.6348L114.375 14.4958L113.816 12.4287L103.36 15.1952C105.049 10.4102 105.993 5.51042 105.212 2.42328C104.969 1.46181 104.594 0.771898 104.145 0.401555C103.633 -0.0210992 103.065 -0.114801 102.468 0.142761C102.064 0.316777 101.698 0.667887 101.395 1.2044C100.786 2.28204 100.259 4.48793 100.086 7.98964C99.9557 10.6359 100.032 13.4115 100.207 15.965L100.212 16.0282L95.3287 17.3202L95.8881 19.3873L99.7797 18.3576C97.9965 22.385 95.8642 25.8622 94.1377 27.2751C93.9974 27.39 93.9089 27.4807 93.8567 27.5341C93.8197 27.572 93.801 27.5912 93.7949 27.5872C93.5732 27.4407 93.344 26.8983 93.0878 25.9195C92.7743 24.7214 92.504 23.0227 92.2837 21.3489C92.0638 19.6775 91.8896 17.9841 91.7735 16.8552C91.745 16.5778 91.7019 16.3184 91.6464 16.0792ZM99.7797 18.3576L102.512 17.6348L102.497 17.4715C102.719 16.9226 102.933 16.369 103.137 15.8136C103.213 15.6078 103.287 15.4016 103.36 15.1952L100.212 16.0282C100.238 16.4071 100.267 16.7814 100.297 17.15C100.128 17.557 99.9557 17.96 99.7797 18.3576ZM81.5658 15.8347C81.4233 16.1866 81.2665 16.5304 81.0975 16.8671C81.1843 14.7672 81.3954 12.7376 81.7405 11.1969C82.003 10.0251 82.3313 9.1673 82.662 8.62632C82.7787 9.28454 82.7801 10.2752 82.6548 11.418C82.5007 12.8249 82.1458 14.4039 81.5658 15.8347ZM103.11 2.9421C103.645 5.05445 103.189 8.29845 102.193 11.7662C102.173 10.5316 102.188 9.29361 102.247 8.08996C102.376 5.46787 102.686 3.72802 103.057 2.74193C103.075 2.8047 103.093 2.87148 103.11 2.9421Z" fill="#FDEC19"/>
    <path d="M102.497 17.4715C102.719 16.9226 102.933 16.369 103.137 15.8136C103.213 15.6078 103.287 15.4016 103.36 15.1952L100.212 16.0282C100.238 16.4071 100.267 16.7814 100.297 17.15C100.128 17.557 99.9557 17.96 99.7797 18.3576L102.512 17.6348L102.497 17.4715Z" fill="#FDEC19"/>
</svg>
