<svg width="147" height="155" viewBox="0 0 147 155" fill="none" xmlns="http://www.w3.org/2000/svg">
<g filter="url(#filter0_d_23_205)">
<path d="M74.9692 45.9651C74.3888 45.3238 73.5401 44.9699 72.6593 45.002C71.7786 45.0341 70.9599 45.4486 70.431 46.1302L70.4125 46.154L70.3513 46.2324C70.2965 46.3024 70.2143 46.407 70.1071 46.5425C69.8927 46.8135 69.5785 47.2078 69.1836 47.6951C68.3932 48.6707 67.2836 50.0144 66.0075 51.4861C63.4098 54.4823 60.2821 57.8217 57.7894 59.7497C49.9838 65.787 45 73.5994 45 83.1522C45 91.6558 48.2223 98.4356 53.4344 103.072C58.6085 107.674 65.556 110 72.7693 110C87.0806 110 102 100.664 102 83.1522C102 74.9361 100.065 68.8706 98.0622 64.804C97.0634 62.7762 96.0532 61.2563 95.2701 60.2215C94.8785 59.7041 94.5436 59.3078 94.2949 59.0295C94.1705 58.8904 94.0677 58.7807 93.99 58.7002C93.9512 58.6599 93.9186 58.6268 93.8928 58.601L93.8593 58.5677L93.8464 58.5551L93.8385 58.5474L93.8593 58.5677L93.8362 58.5451C93.1198 57.8526 92.0836 57.568 91.0976 57.793C90.1191 58.0163 89.3285 58.7101 89.0034 59.6289L88.9953 59.6503C88.9838 59.6802 88.9606 59.7385 88.9244 59.822C88.852 59.9893 88.7283 60.2559 88.5431 60.5961C88.172 61.2778 87.5597 62.2444 86.6268 63.2967C85.4652 64.6069 83.7892 66.0714 81.4137 67.2898C81.5623 66.3434 81.6746 65.3018 81.719 64.1847C81.9236 59.0411 80.6812 52.2766 74.9692 45.9651ZM70.4878 55.1171C71.3148 54.1633 72.0734 53.2625 72.7261 52.4743C75.4015 56.5794 76.0082 60.6737 75.8772 63.9675C75.7961 66.0042 75.4308 67.7297 75.0884 68.9368C74.9179 69.5382 74.7549 70.0045 74.6398 70.3087C74.5823 70.4607 74.537 70.5716 74.5091 70.6381L74.4809 70.7039L74.4779 70.7107L74.4792 70.7077L74.4809 70.7039C74.0298 71.6901 74.1981 72.8399 74.9158 73.6658C75.6348 74.493 76.7786 74.8516 77.8628 74.5895C84.3656 73.0178 88.5273 69.838 91.0655 66.9751C91.4175 66.578 91.7375 66.1881 92.0277 65.8105C92.2744 66.2414 92.5286 66.7157 92.7839 67.2341C94.4349 70.586 96.1538 75.8248 96.1538 83.1522C96.1538 92.3359 90.9416 98.7947 83.8549 102.012C84.2407 100.961 84.4615 99.8455 84.4615 98.6956C84.4615 93.9918 81.5582 90.4636 79.129 88.3108C77.8767 87.2009 76.6365 86.3528 75.7132 85.7825C75.2486 85.4956 74.8567 85.2743 74.5733 85.121C74.4315 85.0442 74.3162 84.9842 74.2321 84.9413L74.1295 84.8896L74.0966 84.8734L74.0849 84.8677L74.0803 84.8654L72.7692 84.2316L71.462 84.8636L71.4535 84.8677L71.4419 84.8734L71.4089 84.8896L71.3064 84.9413C71.2222 84.9842 71.107 85.0442 70.9651 85.121C70.6818 85.2743 70.2898 85.4956 69.8253 85.7825C68.902 86.3528 67.6618 87.2009 66.4094 88.3108C63.9803 90.4636 61.0769 93.9918 61.0769 98.6956C61.0769 99.7604 61.2501 100.787 61.5606 101.756C60.0424 100.975 58.6421 100.023 57.3926 98.912C53.47 95.4231 50.8462 90.1921 50.8462 83.1522C50.8462 75.7484 54.6316 69.4304 61.4414 64.1633C64.4295 61.8522 67.8787 58.1264 70.4878 55.1171ZM75.1786 92.4773C77.1341 94.2103 78.6154 96.3343 78.6154 98.6956C78.6154 99.8961 77.9651 101.333 76.7311 102.526C75.4972 103.719 74.0109 104.348 72.7692 104.348C71.4668 104.348 69.9793 103.74 68.784 102.61C67.5977 101.488 66.9231 100.065 66.9231 98.6956C66.9231 96.3343 68.4043 94.2103 70.3598 92.4773C71.2137 91.7205 72.0777 91.112 72.7692 90.6731C73.4608 91.112 74.3247 91.7205 75.1786 92.4773Z" fill="url(#paint0_linear_23_205)"/>
</g>
<defs>
<filter id="filter0_d_23_205" x="0" y="0" width="147" height="155" filterUnits="userSpaceOnUse" color-interpolation-filters="sRGB">
<feFlood flood-opacity="0" result="BackgroundImageFix"/>
<feColorMatrix in="SourceAlpha" type="matrix" values="0 0 0 0 0 0 0 0 0 0 0 0 0 0 0 0 0 0 127 0" result="hardAlpha"/>
<feOffset/>
<feGaussianBlur stdDeviation="22.5"/>
<feComposite in2="hardAlpha" operator="out"/>
<feColorMatrix type="matrix" values="0 0 0 0 1 0 0 0 0 0.839216 0 0 0 0 0.305882 0 0 0 0.35 0"/>
<feBlend mode="normal" in2="BackgroundImageFix" result="effect1_dropShadow_23_205"/>
<feBlend mode="normal" in="SourceGraphic" in2="effect1_dropShadow_23_205" result="shape"/>
</filter>
<linearGradient id="paint0_linear_23_205" x1="44.0068" y1="34.1388" x2="110.265" y2="114.505" gradientUnits="userSpaceOnUse">
<stop stop-color="#FFE973"/>
<stop offset="1" stop-color="#FFC226"/>
</linearGradient>
</defs>
</svg>
