<svg width="69" height="89" viewBox="0 0 69 89" fill="none" xmlns="http://www.w3.org/2000/svg">
<g filter="url(#filter0_d_23_282)">
<path d="M43.7715 10.154L10 51.8929H29.7143L24.8612 78.5734C24.852 78.6257 24.8543 78.6795 24.8681 78.7308C24.8819 78.7822 24.9068 78.8298 24.941 78.8705C24.9752 78.9112 25.0179 78.9439 25.0661 78.9663C25.1144 78.9886 25.1669 79.0002 25.2201 79C25.2766 79 25.3324 78.9867 25.3829 78.9613C25.4334 78.9359 25.4774 78.8991 25.5111 78.8537L59.2857 37.1072H39.5714L44.4477 10.4236C44.4542 10.3704 44.4494 10.3164 44.4335 10.2653C44.4176 10.2141 44.391 10.167 44.3554 10.1269C44.3199 10.0868 44.2762 10.0548 44.2273 10.0329C44.1784 10.011 44.1254 9.99982 44.0718 10C44.0132 10.0002 43.9554 10.0143 43.9032 10.0411C43.8511 10.0678 43.8059 10.1065 43.7715 10.154Z" stroke="url(#paint0_linear_23_282)" stroke-width="4.92857" stroke-linecap="round" stroke-linejoin="round" shape-rendering="crispEdges"/>
</g>
<defs>
<filter id="filter0_d_23_282" x="0.604839" y="0.604839" width="68.076" height="87.7903" filterUnits="userSpaceOnUse" color-interpolation-filters="sRGB">
<feFlood flood-opacity="0" result="BackgroundImageFix"/>
<feColorMatrix in="SourceAlpha" type="matrix" values="0 0 0 0 0 0 0 0 0 0 0 0 0 0 0 0 0 0 127 0" result="hardAlpha"/>
<feOffset/>
<feGaussianBlur stdDeviation="3.4654"/>
<feComposite in2="hardAlpha" operator="out"/>
<feColorMatrix type="matrix" values="0 0 0 0 1 0 0 0 0 0.839216 0 0 0 0 0.305882 0 0 0 0.25 0"/>
<feBlend mode="normal" in2="BackgroundImageFix" result="effect1_dropShadow_23_282"/>
<feBlend mode="normal" in="SourceGraphic" in2="effect1_dropShadow_23_282" result="shape"/>
</filter>
<linearGradient id="paint0_linear_23_282" x1="9.14123" y1="-1.52957" x2="80.7862" y2="69.2539" gradientUnits="userSpaceOnUse">
<stop stop-color="#FFE973"/>
<stop offset="1" stop-color="#FFC226"/>
</linearGradient>
</defs>
</svg>
