<svg width="150" height="150" viewBox="0 0 150 150" fill="none" xmlns="http://www.w3.org/2000/svg">
<g filter="url(#filter0_d_23_199)">
<path fill-rule="evenodd" clip-rule="evenodd" d="M93.2143 49.2857C89.0721 49.2857 85.7143 52.6436 85.7143 56.7857C85.7143 57.6 85.8428 58.3822 86.0807 59.1108C87.06 62.1172 89.8864 64.2857 93.2143 64.2857C97.3564 64.2857 100.714 60.9279 100.714 56.7857C100.714 52.6436 97.3564 49.2857 93.2143 49.2857ZM81.4286 56.7857C81.4286 50.2757 86.7043 45 93.2143 45C99.7243 45 105 50.2757 105 56.7857C105 63.2957 99.7243 68.5714 93.2143 68.5714C88.8536 68.5714 85.05 66.2036 83.01 62.6872L67.9714 70.2192C68.8071 72.7671 68.7514 75.5593 67.815 78.0729L84.1136 85.725C86.2736 83.1043 89.5479 81.4286 93.2143 81.4286C99.7243 81.4286 105 86.7043 105 93.2143C105 99.7243 99.7243 105 93.2143 105C86.7043 105 81.4286 99.7243 81.4286 93.2143C81.4286 91.9114 81.6407 90.6557 82.0329 89.4814L65.5907 81.7629C63.435 84.1843 60.2893 85.7143 56.7857 85.7143C50.2757 85.7143 45 80.4386 45 73.9286C45 67.4186 50.2757 62.1429 56.7857 62.1429C60.4629 62.1429 63.7436 63.8272 65.9036 66.4607L81.57 58.6157C81.4779 58.0179 81.4286 57.4071 81.4286 56.7857ZM56.7857 66.4286C52.6436 66.4286 49.2857 69.7864 49.2857 73.9286C49.2857 78.0707 52.6436 81.4286 56.7857 81.4286C59.4493 81.4286 61.7914 80.0422 63.1243 77.94C64.5793 75.645 64.6607 72.6279 63.33 70.2601C62.0421 67.9693 59.5929 66.4286 56.7857 66.4286ZM93.2143 85.7143C90.4286 85.7143 87.9943 87.2315 86.7 89.4965C86.0721 90.5893 85.7143 91.8579 85.7143 93.2143C85.7143 97.3564 89.0721 100.714 93.2143 100.714C97.3564 100.714 100.714 97.3564 100.714 93.2143C100.714 89.0721 97.3564 85.7143 93.2143 85.7143Z" fill="url(#paint0_linear_23_199)"/>
</g>
<defs>
<filter id="filter0_d_23_199" x="0" y="0" width="150" height="150" filterUnits="userSpaceOnUse" color-interpolation-filters="sRGB">
<feFlood flood-opacity="0" result="BackgroundImageFix"/>
<feColorMatrix in="SourceAlpha" type="matrix" values="0 0 0 0 0 0 0 0 0 0 0 0 0 0 0 0 0 0 127 0" result="hardAlpha"/>
<feOffset/>
<feGaussianBlur stdDeviation="22.5"/>
<feComposite in2="hardAlpha" operator="out"/>
<feColorMatrix type="matrix" values="0 0 0 0 1 0 0 0 0 0.839216 0 0 0 0 0.305882 0 0 0 0.35 0"/>
<feBlend mode="normal" in2="BackgroundImageFix" result="effect1_dropShadow_23_199"/>
<feBlend mode="normal" in="SourceGraphic" in2="effect1_dropShadow_23_199" result="shape"/>
</filter>
<linearGradient id="paint0_linear_23_199" x1="43.9545" y1="34.9743" x2="103.119" y2="116.809" gradientUnits="userSpaceOnUse">
<stop stop-color="#FFE973"/>
<stop offset="1" stop-color="#FFC226"/>
</linearGradient>
</defs>
</svg>
