<svg width="152" height="152" viewBox="0 0 152 152" fill="none" xmlns="http://www.w3.org/2000/svg">
<g filter="url(#filter0_d_23_210)">
<path fill-rule="evenodd" clip-rule="evenodd" d="M67.1606 53.1964C67.4484 48.6224 71.2969 45 76 45C80.7031 45 84.5516 48.6224 84.8394 53.1964C85.1649 53.3211 85.486 53.4523 85.8026 53.5901C89.2813 50.5583 94.5934 50.683 97.9215 53.9707C101.247 57.2563 101.373 62.5039 98.3045 65.9404C98.444 66.2532 98.5768 66.5704 98.703 66.8919C103.333 67.1763 107 70.9781 107 75.6242C107 80.2704 103.333 84.0722 98.703 84.3565C98.5768 84.6781 98.444 84.9953 98.3045 85.3081C101.373 88.7445 101.247 93.9922 97.9192 97.2777C94.5933 100.565 89.2813 100.69 85.8026 97.6584C85.486 97.7962 85.1649 97.9274 84.8394 98.0521C84.5516 102.626 80.7031 106.248 76 106.248C71.2969 106.248 67.4484 102.626 67.1606 98.0521C66.8351 97.9274 66.514 97.7962 66.1974 97.6584C62.7187 100.69 57.4067 100.565 54.0808 97.2777C50.7527 93.9922 50.6265 88.7445 53.6955 85.3081C53.556 84.9953 53.4232 84.6781 53.2969 84.3565C48.6669 84.0722 45 80.2704 45 75.6242C45 70.9781 48.6669 67.1763 53.2969 66.8919C53.4232 66.5704 53.556 66.2532 53.6955 65.9404C50.6265 62.5039 50.7527 57.2563 54.0808 53.9707C57.4067 50.683 62.7187 50.5583 66.1974 53.5901C66.514 53.4523 66.8351 53.3211 67.1606 53.1964ZM57.2118 63.2499C58.3367 64.3633 58.5426 66.0082 57.9204 67.3272C57.6857 67.8303 57.4709 68.3422 57.276 68.865C56.7712 70.2321 55.4492 71.2493 53.8571 71.2493C51.4104 71.2493 49.4286 73.2071 49.4286 75.6242C49.4286 78.0414 51.4104 79.9991 53.8571 79.9991C55.4492 79.9991 56.7712 81.0164 57.276 82.3835C57.4709 82.9063 57.6857 83.4182 57.9204 83.9213C58.5426 85.2403 58.3367 86.8852 57.2118 87.9986C55.4825 89.707 55.4825 92.4763 57.2118 94.1847C58.9412 95.8931 61.7445 95.8931 63.4738 94.1847C64.6009 93.0735 66.2659 92.87 67.6011 93.4847C68.1104 93.7166 68.6286 93.9288 69.1578 94.1213C70.5417 94.62 71.5714 95.9259 71.5714 97.4987C71.5714 99.9158 73.5532 101.874 76 101.874C78.4468 101.874 80.4286 99.9158 80.4286 97.4987C80.4286 95.9259 81.4583 94.62 82.8422 94.1213C83.3714 93.9288 83.8918 93.7166 84.3988 93.4847C85.7341 92.87 87.3991 93.0735 88.5262 94.1847C90.2555 95.8931 93.0588 95.8931 94.7882 94.1847C96.5175 92.4763 96.5175 89.707 94.7882 87.9986C93.6633 86.8852 93.4574 85.2403 94.0796 83.9213C94.3143 83.4182 94.5291 82.9063 94.724 82.3835C95.2288 81.0164 96.5508 79.9991 98.1429 79.9991C100.59 79.9991 102.571 78.0414 102.571 75.6242C102.571 73.2071 100.59 71.2493 98.1429 71.2493C96.5508 71.2493 95.2288 70.2321 94.724 68.865C94.5291 68.3422 94.3143 67.8303 94.0796 67.3272C93.4574 66.0082 93.6633 64.3633 94.7882 63.2499C96.5175 61.5415 96.5175 58.7722 94.7882 57.0638C93.0588 55.3554 90.2555 55.3554 88.5262 57.0638C87.3991 58.175 85.7341 58.3785 84.3988 57.7638C83.8918 57.5319 83.3714 57.3197 82.8422 57.1272C81.4583 56.6285 80.4286 55.3226 80.4286 53.7498C80.4286 51.3327 78.4468 49.3749 76 49.3749C73.5532 49.3749 71.5714 51.3327 71.5714 53.7498C71.5714 55.3226 70.5417 56.6285 69.1578 57.1272C68.6286 57.3197 68.1082 57.5319 67.6011 57.7638C66.2659 58.3785 64.6009 58.175 63.4738 57.0638C61.7445 55.3554 58.9412 55.3554 57.2118 57.0638C55.4825 58.7722 55.4825 61.5415 57.2118 63.2499Z" fill="url(#paint0_linear_23_210)"/>
<path fill-rule="evenodd" clip-rule="evenodd" d="M76 66.8745C71.1086 66.8745 67.1429 70.7922 67.1429 75.6242C67.1429 80.4563 71.1086 84.374 76 84.374C80.8914 84.374 84.8571 80.4563 84.8571 75.6242C84.8571 70.7922 80.8914 66.8745 76 66.8745ZM62.7143 75.6242C62.7143 68.375 68.6619 62.4996 76 62.4996C83.3381 62.4996 89.2857 68.375 89.2857 75.6242C89.2857 82.8734 83.3381 88.7489 76 88.7489C68.6619 88.7489 62.7143 82.8734 62.7143 75.6242Z" fill="url(#paint1_linear_23_210)"/>
</g>
<defs>
<filter id="filter0_d_23_210" x="0" y="0" width="152" height="151.249" filterUnits="userSpaceOnUse" color-interpolation-filters="sRGB">
<feFlood flood-opacity="0" result="BackgroundImageFix"/>
<feColorMatrix in="SourceAlpha" type="matrix" values="0 0 0 0 0 0 0 0 0 0 0 0 0 0 0 0 0 0 127 0" result="hardAlpha"/>
<feOffset/>
<feGaussianBlur stdDeviation="22.5"/>
<feComposite in2="hardAlpha" operator="out"/>
<feColorMatrix type="matrix" values="0 0 0 0 1 0 0 0 0 0.839216 0 0 0 0 0.305882 0 0 0 0.35 0"/>
<feBlend mode="normal" in2="BackgroundImageFix" result="effect1_dropShadow_23_210"/>
<feBlend mode="normal" in="SourceGraphic" in2="effect1_dropShadow_23_210" result="shape"/>
</filter>
<linearGradient id="paint0_linear_23_210" x1="43.9197" y1="34.7657" x2="104.081" y2="119" gradientUnits="userSpaceOnUse">
<stop stop-color="#FFE973"/>
<stop offset="1" stop-color="#FFC226"/>
</linearGradient>
<linearGradient id="paint1_linear_23_210" x1="43.9197" y1="34.7657" x2="104.081" y2="119" gradientUnits="userSpaceOnUse">
<stop stop-color="#FFE973"/>
<stop offset="1" stop-color="#FFC226"/>
</linearGradient>
</defs>
</svg>
