<svg width="72" height="76" viewBox="0 0 72 76" fill="none" xmlns="http://www.w3.org/2000/svg">
<g filter="url(#filter0_d_23_287)">
<path d="M48.1975 22.307C47.6542 29.6356 42.0985 35.6141 35.9994 35.6141C29.9004 35.6141 24.335 29.637 23.8013 22.307C23.2468 14.6832 28.6528 9 35.9994 9C43.346 9 48.752 14.8218 48.1975 22.307Z" stroke="url(#paint0_linear_23_287)" stroke-width="4.43568" stroke-linecap="round" stroke-linejoin="round"/>
<path d="M35.9994 44.4854C23.9399 44.4854 11.7002 51.1389 9.43525 63.6974C9.16218 65.2111 10.0188 66.6637 11.6032 66.6637H60.3957C61.9814 66.6637 62.838 65.2111 62.565 63.6974C60.2986 51.1389 48.0589 44.4854 35.9994 44.4854Z" stroke="url(#paint1_linear_23_287)" stroke-width="4.43568" stroke-miterlimit="10"/>
</g>
<defs>
<filter id="filter0_d_23_287" x="0.929808" y="0.544554" width="70.1406" height="74.5747" filterUnits="userSpaceOnUse" color-interpolation-filters="sRGB">
<feFlood flood-opacity="0" result="BackgroundImageFix"/>
<feColorMatrix in="SourceAlpha" type="matrix" values="0 0 0 0 0 0 0 0 0 0 0 0 0 0 0 0 0 0 127 0" result="hardAlpha"/>
<feOffset/>
<feGaussianBlur stdDeviation="3.11884"/>
<feComposite in2="hardAlpha" operator="out"/>
<feColorMatrix type="matrix" values="0 0 0 0 1 0 0 0 0 0.839216 0 0 0 0 0.305882 0 0 0 0.25 0"/>
<feBlend mode="normal" in2="BackgroundImageFix" result="effect1_dropShadow_23_287"/>
<feBlend mode="normal" in="SourceGraphic" in2="effect1_dropShadow_23_287" result="shape"/>
</filter>
<linearGradient id="paint0_linear_23_287" x1="23.3358" y1="4.55292" x2="50.1912" y2="38.7121" gradientUnits="userSpaceOnUse">
<stop stop-color="#FFE973"/>
<stop offset="1" stop-color="#FFC226"/>
</linearGradient>
<linearGradient id="paint1_linear_23_287" x1="8.45751" y1="40.7795" x2="21.178" y2="83.0081" gradientUnits="userSpaceOnUse">
<stop stop-color="#FFE973"/>
<stop offset="1" stop-color="#FFC226"/>
</linearGradient>
</defs>
</svg>
